<?xml version="1.0" standalone="no"?>
<!DOCTYPE svg PUBLIC "-//W3C//DTD SVG 20010904//EN"
 "http://www.w3.org/TR/2001/REC-SVG-20010904/DTD/svg10.dtd">
<svg version="1.0" xmlns="http://www.w3.org/2000/svg"
 width="80.000000pt" height="80.000000pt" viewBox="0 0 80.000000 80.000000"
 preserveAspectRatio="xMidYMid meet">
<metadata>
Created by potrace 1.11, written by Peter Selinger 2001-2013
</metadata>
<g transform="translate(0.000000,80.000000) scale(0.100000,-0.100000)"
fill="#000000" stroke="none">
<path d="M482 520 c-12 -16 -22 -36 -22 -45 0 -8 -4 -15 -8 -15 -5 0 -13 -21
-18 -47 -8 -45 -11 -48 -41 -51 l-33 -3 0 70 c0 58 -4 75 -20 91 -20 20 -70
28 -70 11 0 -5 -9 -13 -20 -16 -23 -7 -54 -60 -45 -76 4 -6 17 1 32 16 14 14
36 25 49 25 20 0 24 -5 24 -29 0 -63 -11 -91 -36 -91 -17 0 -24 -6 -24 -20 0
-11 7 -20 15 -20 14 0 15 -11 9 -76 l-7 -76 24 4 c23 3 32 28 48 141 1 4 19 7
41 7 37 0 40 -2 40 -28 0 -42 17 -93 37 -108 45 -34 132 4 133 59 0 24 -12 21
-44 -8 -15 -14 -30 -25 -35 -25 -19 0 -31 28 -31 73 0 49 10 67 43 80 9 3 17
13 17 21 0 8 7 19 16 24 21 12 24 119 4 132 -27 18 -56 10 -78 -20z m58 -26
c0 -37 -24 -93 -41 -97 -20 -5 -20 -8 -3 70 8 39 44 60 44 27z"/>
</g>
</svg>
